<?xml version="1.0" encoding="UTF-8" standalone="no"?>
<!-- Created with Inkscape (http://www.inkscape.org/) -->

<svg
   width="34.521996mm"
   height="20.691633mm"
   viewBox="0 0 34.521995 20.691633"
   version="1.1"
   id="svg5"
   xmlns="http://www.w3.org/2000/svg"
   xmlns:svg="http://www.w3.org/2000/svg">
  <defs
     id="defs2" />
  <g
     id="layer1"
     transform="translate(-5.8007876,-1.9541315)">
    <path
       style="fill:none;fill-opacity:1;stroke:#000000;stroke-width:0.862;stroke-linecap:round;stroke-linejoin:round;stroke-dasharray:none;stroke-opacity:1;paint-order:stroke fill markers"
       d="m 36.251957,10.227236 c -3.354063,0 -10.061923,0 -13.551994,-0.04608 C 19.209892,10.135069 18.937357,10.042905 18.801088,9.5958819 18.66482,9.1488592 18.66482,8.3467457 18.66482,7.0242978 c 0,-1.3224479 0,-3.1651407 -0.108551,-4.0649274 C 18.447717,2.0595836 18.230931,2.1029408 16.073825,3.92412 13.916718,5.7452992 9.8194363,9.3439697 7.7708944,11.295107 c -2.0485418,1.951138 -2.0485418,2.25464 -0.021522,3.891298 2.0270203,1.636659 6.0809441,4.606646 8.1945481,6.01593 2.113603,1.409284 2.287034,1.257532 2.384729,0.09769 0.0977,-1.159846 0.119375,-3.32772 0.195135,-4.48755 0.07576,-1.159829 0.205831,-1.31158 1.463368,-1.398439 1.257536,-0.08686 3.642222,-0.108538 7.121632,-0.108539 3.479409,0 8.053622,0.02168 10.362533,-0.03236 2.30891,-0.05404 2.352267,-0.184112 2.384837,-0.975441 0.03257,-0.791329 0.05425,-2.243805 0.01075,-3.032496 -0.0435,-0.788692 -0.152182,-0.913316 -0.206535,-0.975638 -0.05435,-0.06232 -0.05436,-0.06232 -3.408418,-0.06232 z"
       id="path342" />
  </g>
</svg>
