<?xml version="1.0" encoding="UTF-8" standalone="no"?>
<!-- Created with Inkscape (http://www.inkscape.org/) -->

<svg
   width="34.521999mm"
   height="20.691631mm"
   viewBox="0 0 34.521999 20.691631"
   version="1.1"
   id="svg5"
   xmlns:inkscape="http://www.inkscape.org/namespaces/inkscape"
   xmlns:sodipodi="http://sodipodi.sourceforge.net/DTD/sodipodi-0.dtd"
   xmlns="http://www.w3.org/2000/svg"
   xmlns:svg="http://www.w3.org/2000/svg">
  <sodipodi:namedview
     id="namedview7"
     pagecolor="#ffffff"
     bordercolor="#000000"
     borderopacity="0.25"
     inkscape:showpageshadow="2"
     inkscape:pageopacity="0.0"
     inkscape:pagecheckerboard="0"
     inkscape:deskcolor="#d1d1d1"
     inkscape:document-units="mm"
     showgrid="false" />
  <defs
     id="defs2">
    <inkscape:path-effect
       effect="bspline"
       id="path-effect344"
       is_visible="true"
       lpeversion="1"
       weight="33.333333"
       steps="2"
       helper_size="0"
       apply_no_weight="true"
       apply_with_weight="true"
       only_selected="false" />
  </defs>
  <g
     inkscape:label="Layer 1"
     inkscape:groupmode="layer"
     id="layer1"
     transform="translate(-5.8007876,-1.9541314)">
    <path
       style="fill:#00a451;fill-opacity:1;stroke:#000000;stroke-width:0.862;stroke-linecap:round;stroke-linejoin:round;stroke-dasharray:none;stroke-opacity:1;paint-order:stroke fill markers"
       d="m 36.251957,10.227236 c -3.354063,0 -10.061923,0 -13.551994,-0.04608 C 19.209892,10.135069 18.937357,10.042905 18.801088,9.5958819 18.66482,9.1488592 18.66482,8.3467457 18.66482,7.0242978 c 0,-1.3224479 0,-3.1651407 -0.108551,-4.0649274 C 18.447717,2.0595836 18.230931,2.1029408 16.073825,3.92412 13.916718,5.7452992 9.8194363,9.3439697 7.7708944,11.295107 c -2.0485418,1.951138 -2.0485418,2.25464 -0.021522,3.891298 2.0270203,1.636659 6.0809441,4.606646 8.1945481,6.01593 2.113603,1.409284 2.287034,1.257532 2.384729,0.09769 0.0977,-1.159846 0.119375,-3.32772 0.195135,-4.48755 0.07576,-1.159829 0.205831,-1.31158 1.463368,-1.398439 1.257536,-0.08686 3.642222,-0.108538 7.121632,-0.108539 3.479409,0 8.053622,0.02168 10.362533,-0.03236 2.30891,-0.05404 2.352267,-0.184112 2.384837,-0.975441 0.03257,-0.791329 0.05425,-2.243805 0.01075,-3.032496 -0.0435,-0.788692 -0.152182,-0.913316 -0.206535,-0.975638 -0.05435,-0.06232 -0.05436,-0.06232 -3.408418,-0.06232 z"
       id="path342"
       inkscape:path-effect="#path-effect344"
       inkscape:original-d="m 39.606019,10.227236 c -6.708125,2.65e-4 -13.415985,2.65e-4 -20.123581,0 -0.272545,-0.09217 -0.545081,-0.184332 -0.817618,-0.2764957 -2.65e-4,-0.8018811 -2.65e-4,-1.6039946 0,-2.4063885 -2.65e-4,-1.8425019 -2.65e-4,-3.6851947 0,-5.5281887 -0.217062,0.043624 -0.433848,0.086981 -0.650375,0.130075 -4.097711,3.5990791 -8.1949924,7.1977502 -12.2920924,10.7962279 -2.64e-4,0.303779 -2.64e-4,0.607281 0,0.910525 4.053822,2.970371 8.1077464,5.940358 12.1620154,8.91014 0.173172,-0.151493 0.346604,-0.303244 0.5203,-0.455263 0.0214,-2.167696 0.0431,-4.33557 0.06504,-6.503751 0.129815,-0.151493 0.259887,-0.303244 0.390226,-0.455263 2.384755,-0.02168 4.769441,-0.04336 7.154126,-0.06504 4.574133,0.02194 9.148346,0.04362 13.722916,0.06504 0.04309,-0.129813 0.08645,-0.259885 0.130073,-0.390225 0.02142,-1.452269 0.04309,-2.904745 0.06504,-4.357514 -0.108956,-0.124364 -0.217643,-0.248988 -0.326067,-0.373879 z"
       inkscape:export-filename="arrow_right.svg"
       inkscape:export-xdpi="96"
       inkscape:export-ydpi="96" />
  </g>
</svg>
