<?xml version="1.0" encoding="UTF-8" standalone="no"?>
<!-- Created with Inkscape (http://www.inkscape.org/) -->

<svg
   width="34.521999mm"
   height="20.691631mm"
   viewBox="0 0 34.521999 20.691631"
   version="1.1"
   id="svg5"
   xmlns:inkscape="http://www.inkscape.org/namespaces/inkscape"
   xmlns:sodipodi="http://sodipodi.sourceforge.net/DTD/sodipodi-0.dtd"
   xmlns="http://www.w3.org/2000/svg"
   xmlns:svg="http://www.w3.org/2000/svg">
  <sodipodi:namedview
     id="namedview7"
     pagecolor="#ffffff"
     bordercolor="#000000"
     borderopacity="0.25"
     inkscape:showpageshadow="2"
     inkscape:pageopacity="0.0"
     inkscape:pagecheckerboard="0"
     inkscape:deskcolor="#d1d1d1"
     inkscape:document-units="mm"
     showgrid="false" />
  <defs
     id="defs2">
    <inkscape:path-effect
       effect="bspline"
       id="path-effect344"
       is_visible="true"
       lpeversion="1"
       weight="33.333333"
       steps="2"
       helper_size="0"
       apply_no_weight="true"
       apply_with_weight="true"
       only_selected="false" />
  </defs>
  <g
     inkscape:label="Layer 1"
     inkscape:groupmode="layer"
     id="layer1"
     transform="translate(-7.8040301,-2.6045064)">
    <path
       style="fill:#00a451;fill-opacity:1;stroke:#000000;stroke-width:0.862;stroke-linecap:round;stroke-linejoin:round;stroke-dasharray:none;stroke-opacity:1;paint-order:stroke fill markers"
       d="m 11.820505,10.939934 c 3.408415,-0.06232 10.116275,-0.06232 13.606346,-0.108407 3.490071,-0.04608 3.762606,-0.138248 3.898875,-0.58527 0.136268,-0.4470226 0.136268,-1.2491361 0.136268,-2.571584 0,-1.3224479 0,-3.1651407 0.108551,-4.0649274 0.108552,-0.8997868 0.325338,-0.8564296 2.482444,0.9647497 2.157107,1.8211792 6.254388,5.4198492 8.30293,7.3709867 2.048542,1.951138 2.048542,2.25464 0.02152,3.891298 -2.027021,1.636659 -6.080944,4.606646 -8.194548,6.01593 -2.113603,1.409284 -2.287034,1.257532 -2.384729,0.09769 -0.0977,-1.159846 -0.119375,-3.32772 -0.195135,-4.48755 -0.07576,-1.159829 -0.205831,-1.31158 -1.463368,-1.398439 -1.257536,-0.08686 -3.642222,-0.108538 -7.121632,-0.108539 -3.479409,0 -8.053622,0.02168 -10.362533,-0.03236 -2.3089111,-0.05404 -2.3522678,-0.184111 -2.3848374,-0.97544 -0.03257,-0.791329 -0.054248,-2.243805 -0.010752,-3.032496 0.043496,-0.788692 0.1521831,-0.913316 3.5605987,-0.975638 z"
       id="path342"
       inkscape:path-effect="#path-effect344"
       inkscape:original-d="m 8.5207953,10.877611 c 6.7081247,2.65e-4 13.4159847,2.65e-4 20.1235807,0 0.272545,-0.09217 0.545081,-0.184332 0.817618,-0.276496 2.65e-4,-0.8018806 2.65e-4,-1.6039941 0,-2.406388 2.65e-4,-1.8425019 2.65e-4,-3.6851947 0,-5.5281887 0.217062,0.043624 0.433848,0.086981 0.650375,0.130075 4.097711,3.5990791 8.194992,7.1977497 12.292092,10.7962277 2.64e-4,0.303779 2.64e-4,0.607281 0,0.910525 -4.053822,2.970371 -8.107746,5.940358 -12.162015,8.91014 -0.173172,-0.151493 -0.346604,-0.303244 -0.5203,-0.455263 -0.0214,-2.167696 -0.0431,-4.33557 -0.06504,-6.503751 -0.129815,-0.151493 -0.259887,-0.303244 -0.390226,-0.455263 -2.384755,-0.02168 -4.769441,-0.04336 -7.154126,-0.06504 -4.574133,0.02194 -9.148346,0.04362 -13.7229165,0.06504 -0.043093,-0.129813 -0.08645,-0.259885 -0.130073,-0.390225 -0.021415,-1.452269 -0.043094,-2.904745 -0.065037,-4.357514 0.1089562,-0.124364 0.2176436,-0.248988 0.3260678,-0.373879 z"
       inkscape:export-filename="path342.svg"
       inkscape:export-xdpi="96"
       inkscape:export-ydpi="96" />
  </g>
</svg>
