<?xml version="1.0" encoding="UTF-8" standalone="no"?>
<!-- Created with Inkscape (http://www.inkscape.org/) -->

<svg
   width="34.521996mm"
   height="20.691633mm"
   viewBox="0 0 34.521995 20.691633"
   version="1.1"
   id="svg5"
   sodipodi:docname="path342.svg"
   xmlns:inkscape="http://www.inkscape.org/namespaces/inkscape"
   xmlns:sodipodi="http://sodipodi.sourceforge.net/DTD/sodipodi-0.dtd"
   xmlns="http://www.w3.org/2000/svg"
   xmlns:svg="http://www.w3.org/2000/svg">
  <sodipodi:namedview
     id="namedview854"
     pagecolor="#ffffff"
     bordercolor="#000000"
     borderopacity="0.25"
     inkscape:showpageshadow="2"
     inkscape:pageopacity="0.0"
     inkscape:pagecheckerboard="0"
     inkscape:deskcolor="#d1d1d1"
     inkscape:document-units="mm"
     showgrid="false" />
  <defs
     id="defs2" />
  <g
     id="layer1"
     transform="translate(-7.8040278,-2.6045067)"
     style="fill:none">
    <path
       style="fill:none;fill-opacity:1;stroke:#000000;stroke-width:0.862;stroke-linecap:round;stroke-linejoin:round;stroke-dasharray:none;stroke-opacity:1;paint-order:stroke fill markers"
       d="m 11.820505,10.939934 c 3.408415,-0.06232 10.116275,-0.06232 13.606346,-0.108407 3.490071,-0.04608 3.762606,-0.138248 3.898875,-0.58527 0.136268,-0.4470226 0.136268,-1.2491361 0.136268,-2.571584 0,-1.3224479 0,-3.1651407 0.108551,-4.0649274 0.108552,-0.8997868 0.325338,-0.8564296 2.482444,0.9647497 2.157107,1.8211792 6.254388,5.4198492 8.30293,7.3709867 2.048542,1.951138 2.048542,2.25464 0.02152,3.891298 -2.027021,1.636659 -6.080944,4.606646 -8.194548,6.01593 -2.113603,1.409284 -2.287034,1.257532 -2.384729,0.09769 -0.0977,-1.159846 -0.119375,-3.32772 -0.195135,-4.48755 -0.07576,-1.159829 -0.205831,-1.31158 -1.463368,-1.398439 -1.257536,-0.08686 -3.642222,-0.108538 -7.121632,-0.108539 -3.479409,0 -8.053622,0.02168 -10.362533,-0.03236 -2.3089111,-0.05404 -2.3522678,-0.184111 -2.3848374,-0.97544 -0.03257,-0.791329 -0.054248,-2.243805 -0.010752,-3.032496 0.043496,-0.788692 0.1521831,-0.913316 3.5605984,-0.975638 z"
       id="path342" />
  </g>
</svg>
