<?xml version="1.0" encoding="UTF-8" standalone="no"?>
<!-- Created with Inkscape (http://www.inkscape.org/) -->

<svg
   width="210mm"
   height="210mm"
   viewBox="0 0 210 210"
   version="1.1"
   id="svg5"
   inkscape:export-filename="grammarToGraphIcon.svg"
   inkscape:export-xdpi="96"
   inkscape:export-ydpi="96"
   xmlns:inkscape="http://www.inkscape.org/namespaces/inkscape"
   xmlns:sodipodi="http://sodipodi.sourceforge.net/DTD/sodipodi-0.dtd"
   xmlns="http://www.w3.org/2000/svg"
   xmlns:svg="http://www.w3.org/2000/svg">
  <sodipodi:namedview
     id="namedview7"
     pagecolor="#ffffff"
     bordercolor="#000000"
     borderopacity="0.25"
     inkscape:showpageshadow="2"
     inkscape:pageopacity="1"
     inkscape:pagecheckerboard="0"
     inkscape:deskcolor="#d1d1d1"
     inkscape:document-units="mm"
     showgrid="false" />
  <defs
     id="defs2" />
  <g
     inkscape:label="Layer 1"
     inkscape:groupmode="layer"
     id="layer1">
    <path
       style="fill:none;stroke:#ffa500;stroke-width:3.247;stroke-linejoin:round;stroke-dasharray:none;stroke-opacity:1"
       d="m 17.073022,72.604611 5.47899,-5.698151 4.60235,5.478992 6.13647,-5.040673 4.3832,5.259832 7.67059,-4.821512 4.60235,5.040672 6.13647,-5.698151 4.16403,5.040672 6.79395,-5.040672 5.04067,5.698151"
       id="path291" />
    <path
       style="fill:none;stroke:#ffa500;stroke-width:3.247;stroke-linejoin:round;stroke-dasharray:none;stroke-opacity:1"
       d="m 17.073022,90.08054 5.47899,-5.698151 4.60235,5.478992 6.13647,-5.040673 4.3832,5.259832 7.67059,-4.821512 4.60235,5.040672 6.13647,-5.698151 4.16403,5.040672 6.79395,-5.040672 5.04067,5.698151"
       id="path1441" />
    <path
       style="fill:none;stroke:#ffa500;stroke-width:3.247;stroke-linejoin:round;stroke-dasharray:none;stroke-opacity:1"
       d="m 17.073022,107.55647 5.47899,-5.69815 4.60235,5.47899 6.13647,-5.04067 4.3832,5.25983 7.67059,-4.82151 4.60235,5.04067 6.13647,-5.69815 4.16403,5.04067 6.79395,-5.04067 5.04067,5.69815"
       id="path1443" />
    <path
       style="fill:none;stroke:#ffa500;stroke-width:3.247;stroke-linejoin:round;stroke-dasharray:none;stroke-opacity:1"
       d="m 17.073022,125.0324 5.47899,-5.69815 4.60235,5.47899 6.13647,-5.04067 4.3832,5.25983 7.67059,-4.82151 4.60235,5.04067 6.13647,-5.69815 4.16403,5.04067 6.79395,-5.04067 5.04067,5.69815"
       id="path1445" />
    <path
       style="fill:none;stroke:#ffa500;stroke-width:3.092;stroke-linecap:round;stroke-linejoin:round;stroke-dasharray:none;stroke-opacity:1"
       d="m 84.944817,104.0981 h 29.901863 l -10.2424,-8.447377 10.2424,8.447377 -9.32086,7.56966"
       id="path1447" />
    <circle
       style="fill:none;stroke:#ffa500;stroke-width:2.214;stroke-linecap:round;stroke-linejoin:round;stroke-dasharray:none;stroke-opacity:1"
       id="path1501"
       cx="144.17241"
       cy="94.34507"
       r="9.5540838" />
    <circle
       style="fill:none;stroke:#ffa500;stroke-width:2.114;stroke-linecap:round;stroke-linejoin:round;stroke-dasharray:none;stroke-opacity:1"
       id="circle1503"
       cx="178.98581"
       cy="83.183739"
       r="9.5540838" />
    <circle
       style="fill:none;stroke:#ffa500;stroke-width:1.81444;stroke-linecap:round;stroke-linejoin:round;stroke-dasharray:none;stroke-opacity:1"
       id="circle1505"
       cx="167.79648"
       cy="121.68218"
       r="9.5540838" />
    <path
       style="fill:none;stroke:#ffa500;stroke-width:2.129;stroke-linecap:round;stroke-linejoin:round;stroke-dasharray:none;stroke-opacity:1"
       d="m 153.87065,91.403809 14.89658,-4.95468 -6.40898,-2.81182 6.40898,2.81182 -3.47284,5.5849"
       id="path1507" />
    <path
       style="fill:none;stroke:#ffa500;stroke-width:2.129;stroke-linecap:round;stroke-linejoin:round;stroke-dasharray:none;stroke-opacity:1"
       d="m 150.46302,101.99664 10.58877,11.5903 -0.0401,-6.99855 0.0401,6.99855 -6.51487,-0.89907"
       id="path1509" />
    <circle
       style="fill:none;stroke:#ffa500;stroke-width:1.846;stroke-linecap:round;stroke-linejoin:round;stroke-dasharray:none;stroke-opacity:1"
       id="circle1511"
       cx="167.79648"
       cy="121.68218"
       r="7.088017" />
    <path
       style="fill:none;stroke:#ffa500;stroke-width:3.247;stroke-linejoin:round;stroke-dasharray:none;stroke-opacity:1"
       d="m 17.073022,141.86528 5.47899,-5.69815 4.60235,5.47899 6.13647,-5.04067 4.3832,5.25983 7.67059,-4.82151 4.60235,5.04067 6.13647,-5.69815 4.16403,5.04067 6.79395,-5.04067 5.04067,5.69815"
       id="path1513" />
  </g>
</svg>
