<?xml version="1.0" encoding="UTF-8" standalone="no"?>
<!-- Created with Inkscape (http://www.inkscape.org/) -->

<svg
   width="210mm"
   height="210mm"
   viewBox="0 0 210 210"
   version="1.1"
   id="svg5"
   inkscape:export-filename="multiviewIcon_selected.svg"
   inkscape:export-xdpi="96"
   inkscape:export-ydpi="96"
   xmlns:inkscape="http://www.inkscape.org/namespaces/inkscape"
   xmlns:sodipodi="http://sodipodi.sourceforge.net/DTD/sodipodi-0.dtd"
   xmlns="http://www.w3.org/2000/svg"
   xmlns:svg="http://www.w3.org/2000/svg">
  <sodipodi:namedview
     id="namedview7"
     pagecolor="#ffffff"
     bordercolor="#000000"
     borderopacity="0.25"
     inkscape:showpageshadow="2"
     inkscape:pageopacity="1"
     inkscape:pagecheckerboard="0"
     inkscape:deskcolor="#d1d1d1"
     inkscape:document-units="mm"
     showgrid="false" />
  <defs
     id="defs2" />
  <g
     inkscape:label="Layer 1"
     inkscape:groupmode="layer"
     id="layer1">
    <path
       style="fill:none;stroke:#ffa500;stroke-width:3.247;stroke-linejoin:round;stroke-dasharray:none;stroke-opacity:1"
       d="m 23.207005,72.604611 5.47899,-5.698151 4.60235,5.478992 6.13647,-5.040673 4.3832,5.259832 7.67059,-4.821512 4.60235,5.040672 6.13647,-5.698151 4.16403,5.040672 6.79395,-5.040672 5.04067,5.698151"
       id="path291" />
    <path
       style="fill:none;stroke:#ffa500;stroke-width:3.247;stroke-linejoin:round;stroke-dasharray:none;stroke-opacity:1"
       d="m 23.207005,90.08054 5.47899,-5.698151 4.60235,5.478992 6.13647,-5.040673 4.3832,5.259832 7.67059,-4.821512 4.60235,5.040672 6.13647,-5.698151 4.16403,5.040672 6.79395,-5.040672 5.04067,5.698151"
       id="path1441" />
    <path
       style="fill:none;stroke:#ffa500;stroke-width:3.247;stroke-linejoin:round;stroke-dasharray:none;stroke-opacity:1"
       d="m 23.207005,107.55647 5.47899,-5.69815 4.60235,5.47899 6.13647,-5.04067 4.3832,5.25983 7.67059,-4.82151 4.60235,5.04067 6.13647,-5.69815 4.16403,5.04067 6.79395,-5.04067 5.04067,5.69815"
       id="path1443" />
    <path
       style="fill:none;stroke:#ffa500;stroke-width:3.247;stroke-linejoin:round;stroke-dasharray:none;stroke-opacity:1"
       d="m 23.207005,125.0324 5.47899,-5.69815 4.60235,5.47899 6.13647,-5.04067 4.3832,5.25983 7.67059,-4.82151 4.60235,5.04067 6.13647,-5.69815 4.16403,5.04067 6.79395,-5.04067 5.04067,5.69815"
       id="path1445" />
    <path
       style="fill:none;stroke:#ffa500;stroke-width:3.092;stroke-linecap:round;stroke-linejoin:round;stroke-dasharray:none;stroke-opacity:1"
       d="m 94.289786,104.551 h 29.901864 l -10.2424,-8.447377 10.2424,8.447377 -9.32086,7.56966"
       id="path1447" />
    <path
       style="fill:none;stroke:#ffa500;stroke-width:3.247;stroke-linejoin:round;stroke-dasharray:none;stroke-opacity:1"
       d="m 23.207005,141.86528 5.47899,-5.69815 4.60235,5.47899 6.13647,-5.04067 4.3832,5.25983 7.67059,-4.82151 4.60235,5.04067 6.13647,-5.69815 4.16403,5.04067 6.79395,-5.04067 5.04067,5.69815"
       id="path1513" />
    <text
       xml:space="preserve"
       style="font-size:26.7685px;fill:none;stroke:#ffa500;stroke-width:0.919;stroke-linecap:round;stroke-linejoin:round;stroke-dasharray:none;stroke-opacity:1"
       x="138.547"
       y="112.05145"
       id="text5662"><tspan
         sodipodi:role="line"
         id="tspan5660"
         style="fill:#ffa500;fill-opacity:1;stroke-width:0.919;stroke-dasharray:none"
         x="138.547"
         y="112.05145">abc</tspan></text>
  </g>
</svg>
